<?xml version="1.0" encoding="UTF-8" standalone="no"?>
<!-- Created with Inkscape (http://www.inkscape.org/) -->

<svg
   width="1024"
   height="1024"
   viewBox="0 0 270.93332 270.93332"
   version="1.1"
   id="svg1"
   xml:space="preserve"
   inkscape:version="1.4.3 (0d15f75042, 2025-12-25)"
   sodipodi:docname="V3RCondo-Favicon.svg"
   inkscape:export-filename="V3RCondo-Favicon.png"
   inkscape:export-xdpi="96"
   inkscape:export-ydpi="96"
   xmlns:inkscape="http://www.inkscape.org/namespaces/inkscape"
   xmlns:sodipodi="http://sodipodi.sourceforge.net/DTD/sodipodi-0.dtd"
   xmlns:xlink="http://www.w3.org/1999/xlink"
   xmlns="http://www.w3.org/2000/svg"
   xmlns:svg="http://www.w3.org/2000/svg"><sodipodi:namedview
     id="namedview1"
     pagecolor="#ffffff"
     bordercolor="#000000"
     borderopacity="0.25"
     inkscape:showpageshadow="2"
     inkscape:pageopacity="0.0"
     inkscape:pagecheckerboard="0"
     inkscape:deskcolor="#d1d1d1"
     inkscape:document-units="px"
     inkscape:zoom="0.5"
     inkscape:cx="484"
     inkscape:cy="513"
     inkscape:window-width="2560"
     inkscape:window-height="1012"
     inkscape:window-x="0"
     inkscape:window-y="0"
     inkscape:window-maximized="1"
     inkscape:current-layer="layer1"
     showguides="true"><sodipodi:guide
       position="526.35905,-42.031661"
       orientation="1,0"
       id="guide7"
       inkscape:locked="false" /></sodipodi:namedview><defs
     id="defs1"><linearGradient
       id="linearGradient27"
       inkscape:collect="always"><stop
         style="stop-color:#1e2d2b;stop-opacity:1;"
         offset="0"
         id="stop27" /><stop
         style="stop-color:#da8c1c;stop-opacity:1;"
         offset="1"
         id="stop28" /></linearGradient><linearGradient
       inkscape:collect="always"
       xlink:href="#linearGradient27"
       id="linearGradient28"
       x1="0"
       y1="0"
       x2="270.93332"
       y2="270.93332"
       gradientUnits="userSpaceOnUse" /></defs><g
     inkscape:label="Camada 1"
     inkscape:groupmode="layer"
     id="layer1"><circle
       style="fill:#ffffff;fill-opacity:1;stroke:none;stroke-width:0.780486;stroke-dasharray:none"
       id="circle27"
       cx="135.46666"
       cy="135.46666"
       r="135.46666" /><path
       id="path26"
       style="fill:url(#linearGradient28);fill-opacity:1;stroke:none;stroke-width:0.780486;stroke-dasharray:none"
       d="M 135.46666 0 A 135.46666 135.46666 0 0 0 0 135.46666 A 135.46666 135.46666 0 0 0 135.46666 270.93332 A 135.46666 135.46666 0 0 0 270.93332 135.46666 A 135.46666 135.46666 0 0 0 135.46666 0 z M 135.46666 9.1673986 A 126.29932 126.29932 0 0 1 261.76592 135.46666 A 126.29932 126.29932 0 0 1 135.46666 261.76592 A 126.29932 126.29932 0 0 1 9.1673986 135.46666 A 126.29932 126.29932 0 0 1 135.46666 9.1673986 z " /><g
       id="g22"
       transform="matrix(1.301226,0,0,1.301226,-1.16207,54.394125)"><path
         style="fill:#da8c1c;fill-opacity:1"
         d="m 90.00312,53.6289 0.12017,-43.498942 14.8767,11.780702 V 35.3884 h -7.00783 v 25.75192 z"
         id="path39"
         sodipodi:nodetypes="ccccccc" /><path
         id="path38"
         style="fill:#e6a61c"
         d="M 104.99999,69.3038 46.24184,16.685381 V 44.74917 l 58.74731,56.92736 z"
         sodipodi:nodetypes="ccccc" /><path
         style="fill:#24393a"
         d="m 107.83237,30.56174 h 4.52485 l 1e-5,30.24281 -4.52485,4.2537 z"
         id="path43"
         sodipodi:nodetypes="ccccc" /><path
         id="path40"
         style="fill:#1e2d2b;fill-opacity:1"
         d="M 104.99999,101.67653 23.66645,22.87718 V 69.3038 L 105,148.5 Z"
         sodipodi:nodetypes="ccccc" /><path
         style="fill:#1e2d2b"
         d="m 112.83846,16.363176 12.36389,-4.814502 V 48.72047 l -12.36389,11.63198 z"
         id="path45"
         sodipodi:nodetypes="ccccc" /><path
         style="fill:#1e2d2b"
         d="m 98.38537,61.27914 -0.0655,-25.57479 9.02567,-0.0388 0.0819,29.87123 -2.42745,2.17951 z"
         id="path44"
         sodipodi:nodetypes="cccccc" /><path
         id="path13"
         style="fill:#da8c1c;fill-opacity:1"
         d="M 104.99457,69.3038 163.75272,16.685381 V 44.74917 l -58.74731,56.92736 z"
         sodipodi:nodetypes="ccccc" /><path
         id="path22"
         style="fill:#24393a"
         d="M 105.00001,101.67653 186.33355,22.87718 V 69.3038 L 105,148.5 Z"
         sodipodi:nodetypes="ccccc" /></g></g></svg>
