<?xml version="1.0" encoding="UTF-8" standalone="no"?>
<!-- Created with Inkscape (http://www.inkscape.org/) -->

<svg
   width="1024"
   height="224.31599"
   viewBox="0 0 270.93332 59.350271"
   version="1.1"
   id="svg1"
   xml:space="preserve"
   inkscape:version="1.4.3 (0d15f75042, 2025-12-25)"
   sodipodi:docname="V3RCondo-Logo-Horizontal-Simples.svg"
   inkscape:export-filename="V3RCondo-Logo-Horizontal-Simples.png"
   inkscape:export-xdpi="96"
   inkscape:export-ydpi="96"
   xmlns:inkscape="http://www.inkscape.org/namespaces/inkscape"
   xmlns:sodipodi="http://sodipodi.sourceforge.net/DTD/sodipodi-0.dtd"
   xmlns="http://www.w3.org/2000/svg"
   xmlns:svg="http://www.w3.org/2000/svg"><sodipodi:namedview
     id="namedview1"
     pagecolor="#ffffff"
     bordercolor="#000000"
     borderopacity="0.25"
     inkscape:showpageshadow="2"
     inkscape:pageopacity="0.0"
     inkscape:pagecheckerboard="0"
     inkscape:deskcolor="#d1d1d1"
     inkscape:document-units="px"
     inkscape:zoom="0.5"
     inkscape:cx="158"
     inkscape:cy="-187"
     inkscape:window-width="2560"
     inkscape:window-height="1012"
     inkscape:window-x="0"
     inkscape:window-y="0"
     inkscape:window-maximized="1"
     inkscape:current-layer="layer1"
     showguides="true"><sodipodi:guide
       position="526.35905,10.054478"
       orientation="1,0"
       id="guide7"
       inkscape:locked="false" /></sodipodi:namedview><defs
     id="defs1" /><g
     inkscape:label="Camada 1"
     inkscape:groupmode="layer"
     id="layer1"><g
       id="g26"><g
         id="g22"
         transform="matrix(0.42892429,0,0,0.42892429,-10.150888,-4.3449857)"><path
           style="fill:#da8c1c;fill-opacity:1"
           d="m 90.00312,53.6289 0.12017,-43.498942 14.8767,11.780702 V 35.3884 h -7.00783 v 25.75192 z"
           id="path39"
           sodipodi:nodetypes="ccccccc" /><path
           id="path38"
           style="fill:#e6a61c"
           d="M 104.99999,69.3038 46.24184,16.685381 V 44.74917 l 58.74731,56.92736 z"
           sodipodi:nodetypes="ccccc" /><path
           style="fill:#24393a"
           d="m 107.83237,30.56174 h 4.52485 l 1e-5,30.24281 -4.52485,4.2537 z"
           id="path43"
           sodipodi:nodetypes="ccccc" /><path
           id="path40"
           style="fill:#1e2d2b;fill-opacity:1"
           d="M 104.99999,101.67653 23.66645,22.87718 V 69.3038 L 105,148.5 Z"
           sodipodi:nodetypes="ccccc" /><path
           style="fill:#1e2d2b"
           d="m 112.83846,16.363176 12.36389,-4.814502 V 48.72047 l -12.36389,11.63198 z"
           id="path45"
           sodipodi:nodetypes="ccccc" /><path
           style="fill:#1e2d2b"
           d="m 98.38537,61.27914 -0.0655,-25.57479 9.02567,-0.0388 0.0819,29.87123 -2.42745,2.17951 z"
           id="path44"
           sodipodi:nodetypes="cccccc" /><path
           id="path13"
           style="fill:#da8c1c;fill-opacity:1"
           d="M 104.99457,69.3038 163.75272,16.685381 V 44.74917 l -58.74731,56.92736 z"
           sodipodi:nodetypes="ccccc" /><path
           id="path22"
           style="fill:#24393a"
           d="M 105.00001,101.67653 186.33355,22.87718 V 69.3038 L 105,148.5 Z"
           sodipodi:nodetypes="ccccc" /></g><g
         id="g25"
         transform="matrix(0.82329113,0,0,0.82329113,-24.033687,9.6517464)"><g
           id="g24"
           transform="matrix(0.91265091,0,0,0.91265091,144.84699,-141.29895)"><path
             style="font-size:47.7142px;font-family:'Good Times';-inkscape-font-specification:'Good Times';fill:#1e2d2b;stroke-width:21.7141"
             d="m -23.488013,163.60247 h 7.395701 L -0.34662625,190.32242 15.351345,163.60247 h 6.966273 L 2.3253689,196.81156 c -0.3499041,0.60437 -0.7634272,1.08151 -1.2405692,1.43142 -0.47714197,0.34991 -1.03380762,0.52486 -1.66999694,0.52486 -0.66799876,0 -1.24056916,-0.17495 -1.71771116,-0.52486 -0.477142,-0.34991 -0.8906651,-0.82705 -1.2405692,-1.43142 z m 28.8848131,34.68823 3.489366,-6.05971 H 47.51073 c 1.908568,0 3.467232,-0.38171 4.675992,-1.14514 1.208759,-0.76343 1.813139,-1.90857 1.813139,-3.43542 0,-1.43143 -0.445332,-2.52885 -1.335997,-3.29228 -0.890665,-0.76343 -2.194854,-1.14514 -3.912565,-1.14514 H 33.435042 v -5.10542 h 14.88683 c 1.717711,0 2.990089,-0.31809 3.817136,-0.95428 0.827046,-0.63619 1.240569,-1.71772 1.240569,-3.24457 0,-1.62228 -0.540761,-2.73561 -1.622283,-3.33999 -1.081522,-0.63619 -2.624281,-0.95429 -4.628277,-0.95429 H 21.909455 l 3.461887,-6.01199 h 22.95053 c 1.685901,0 3.212756,0.19086 4.580563,0.57257 1.367807,0.38171 2.544757,0.95428 3.530851,1.71771 0.986093,0.73162 1.733616,1.67 2.242567,2.81514 0.540761,1.11333 0.811141,2.40162 0.811141,3.86485 0,2.19485 -0.477142,3.88076 -1.431426,5.05771 -0.922474,1.14514 -2.035805,1.92447 -3.339994,2.33799 1.590473,0.50895 2.894662,1.43143 3.912565,2.76743 1.017903,1.33599 1.526854,3.02189 1.526854,5.0577 0,1.59047 -0.27038,3.0378 -0.811141,4.34199 -0.508952,1.27238 -1.256475,2.36981 -2.242568,3.29228 -0.954284,0.89067 -2.131234,1.59048 -3.53085,2.09943 -1.367807,0.50895 -2.894662,0.76343 -4.580564,0.76343 z m 89.4093799,0 -8.779412,-9.63827 H 73.048505 v -5.34399 h 14.457403 c 2.194853,0 3.848945,-0.58848 4.962276,-1.76543 1.113331,-1.20876 1.669997,-2.94238 1.669997,-5.20085 0,-2.25847 -0.588475,-3.92846 -1.765425,-5.00999 -1.145141,-1.11333 -2.767423,-1.66999 -4.866848,-1.66999 H 68.611085 v 28.62852 h -6.011989 v -34.68823 h 24.906812 c 1.972187,0 3.737612,0.30219 5.296276,0.90657 1.558664,0.57257 2.878757,1.41552 3.960278,2.52885 1.081524,1.08153 1.908564,2.40162 2.481134,3.96028 0.57257,1.55867 0.858864,3.30819 0.858864,5.24857 0,2.89466 -0.636194,5.32808 -1.908574,7.30027 -1.240567,1.94037 -2.990087,3.33999 -5.24856,4.19885 l 10.449414,10.54484 z"
             id="text22"
             aria-label="V3R"
             sodipodi:nodetypes="ccccccsssccccsssssccssscsccssccsccsscccscccccscscsccccsccsscccc" /><path
             style="font-weight:bold;font-size:47.7142px;font-family:'Exo 2';-inkscape-font-specification:'Exo 2 Bold';fill:#da8c1c;stroke-width:21.7141"
             d="m 119.56985,165.27247 c 1.55867,0 2.87876,0.0477 3.96028,0.14314 1.11333,0.0636 2.13124,0.17493 3.05371,0.334 0.92247,0.15905 1.87676,0.38171 2.86285,0.668 l -0.57257,5.34399 c -1.04971,-0.0636 -2.0199,-0.11131 -2.91057,-0.14314 -0.85885,-0.0318 -1.79723,-0.0477 -2.81513,-0.0477 -0.98609,-0.0318 -2.17895,-0.0477 -3.57857,-0.0477 -1.62228,0 -2.89466,0.31809 -3.81714,0.95428 -0.89066,0.63619 -1.52685,1.74953 -1.90856,3.34 -0.38171,1.55866 -0.57257,3.7217 -0.57257,6.48913 0,2.76742 0.19086,4.94637 0.57257,6.53684 0.38171,1.55867 1.0179,2.65609 1.90856,3.29228 0.92248,0.63619 2.19486,0.95429 3.81714,0.95429 2.19485,0 4.0398,-0.0318 5.53485,-0.0954 1.49505,-0.0636 2.97419,-0.17493 4.43742,-0.334 l 0.62028,5.34399 c -1.52685,0.47714 -3.08552,0.81114 -4.67599,1.002 -1.59047,0.22267 -3.56266,0.334 -5.91656,0.334 -3.40361,0 -6.13923,-0.54076 -8.20684,-1.62228 -2.03581,-1.11333 -3.51495,-2.91057 -4.43742,-5.39171 -0.89067,-2.48114 -1.336,-5.82113 -1.336,-10.01998 0,-4.19885 0.44533,-7.53885 1.336,-10.01998 0.92247,-2.48114 2.40161,-4.26247 4.43742,-5.34399 2.06761,-1.11333 4.80323,-1.67 8.20684,-1.67 z m 23.73481,9.30427 c 2.95828,0 5.32809,0.41352 7.10942,1.24057 1.78133,0.79523 3.05371,2.09942 3.81714,3.91256 0.79524,1.81314 1.19285,4.24656 1.19285,7.30027 0,2.99009 -0.39761,5.39171 -1.19285,7.20485 -0.76343,1.81314 -2.03581,3.11733 -3.81714,3.91256 -1.78133,0.79524 -4.15114,1.19286 -7.10942,1.19286 -2.92646,0 -5.29627,-0.39762 -7.10941,-1.19286 -1.78133,-0.79523 -3.06961,-2.09942 -3.86485,-3.91256 -0.79524,-1.81314 -1.19286,-4.21476 -1.19286,-7.20485 0,-3.05371 0.39762,-5.48713 1.19286,-7.30027 0.79524,-1.81314 2.08352,-3.11733 3.86485,-3.91256 1.81314,-0.82705 4.18295,-1.24057 7.10941,-1.24057 z m 0,5.15313 c -1.20876,0 -2.16304,0.20676 -2.86285,0.62029 -0.6998,0.41352 -1.19285,1.14514 -1.47914,2.19485 -0.28628,1.04971 -0.42943,2.54476 -0.42943,4.48513 0,1.90857 0.14315,3.38772 0.42943,4.43743 0.28629,1.04971 0.77934,1.78132 1.47914,2.19485 0.69981,0.38171 1.65409,0.57257 2.86285,0.57257 1.20876,0 2.16305,-0.19086 2.86286,-0.57257 0.69981,-0.41353 1.19286,-1.14514 1.47914,-2.19485 0.28628,-1.04971 0.42942,-2.52886 0.42942,-4.43743 0,-1.94037 -0.14314,-3.43542 -0.42942,-4.48513 -0.28628,-1.04971 -0.77933,-1.78133 -1.47914,-2.19485 -0.69981,-0.41353 -1.6541,-0.62029 -2.86286,-0.62029 z m 30.97099,-5.15313 c 4.45332,0 6.67998,2.17895 6.67998,6.53684 v 17.65426 h -7.0617 v -15.4594 c 0,-1.04971 -0.19085,-1.76543 -0.57257,-2.14714 -0.38171,-0.41353 -1.0338,-0.62029 -1.95628,-0.62029 -1.0179,0 -2.06761,0.20676 -3.14914,0.62029 -1.08152,0.38171 -2.41751,0.98609 -4.00799,1.81314 l -0.334,-3.96028 c 1.6859,-1.43143 3.40361,-2.52885 5.15313,-3.29228 1.78134,-0.76343 3.53086,-1.14514 5.24857,-1.14514 z m -10.7357,0.62028 0.81114,4.67599 0.57257,0.62029 v 18.27454 h -7.0617 v -23.57082 z m 28.81298,-0.62028 c 1.6541,0 3.24457,0.23857 4.77142,0.71571 1.55866,0.47714 2.92647,1.25647 4.10342,2.338 l -0.47714,3.24456 c -1.08152,-0.31809 -2.05171,-0.60438 -2.91057,-0.85885 -0.85885,-0.25448 -1.86085,-0.38172 -3.00599,-0.38172 -0.98609,0 -1.78133,0.17495 -2.38571,0.52486 -0.60438,0.34991 -1.04971,1.03381 -1.336,2.05171 -0.28628,1.0179 -0.42943,2.52885 -0.42943,4.53285 0,1.87676 0.12724,3.30819 0.38172,4.29428 0.28628,0.95428 0.71571,1.62228 1.28828,2.00399 0.60438,0.34991 1.36781,0.52486 2.29028,0.52486 0.82705,0 1.54276,-0.0795 2.14714,-0.23857 0.60438,-0.19086 1.20876,-0.46124 1.81314,-0.81114 0.60438,-0.38171 1.28829,-0.84295 2.05171,-1.38371 l 0.52486,3.48313 c -0.95428,1.336 -2.19485,2.46524 -3.72171,3.38771 -1.52685,0.89067 -3.40361,1.336 -5.63028,1.336 -3.0219,0 -5.18494,-1.08152 -6.48913,-3.24457 -1.27238,-2.16304 -1.90857,-5.26446 -1.90857,-9.30427 0,-3.14913 0.3181,-5.59846 0.95429,-7.34798 0.668,-1.78133 1.67,-3.03781 3.00599,-3.76942 1.336,-0.73162 2.9901,-1.09743 4.96228,-1.09743 z m 14.64826,-9.20884 v 33.39994 h -5.58256 l -0.71572,-4.34199 -0.76342,-0.52486 v -15.4594 l 0.28628,-0.62029 c -0.0954,-0.98609 -0.17495,-1.97219 -0.23857,-2.95828 -0.0318,-1.0179 -0.0477,-2.05171 -0.0477,-3.10142 v -6.3937 z m 14.73731,9.20884 c 2.95828,0 5.32808,0.41352 7.10941,1.24057 1.78133,0.79523 3.05371,2.09942 3.81714,3.91256 0.79523,1.81314 1.19285,4.24656 1.19285,7.30027 0,2.99009 -0.39762,5.39171 -1.19285,7.20485 -0.76343,1.81314 -2.03581,3.11733 -3.81714,3.91256 -1.78133,0.79524 -4.15113,1.19286 -7.10941,1.19286 -2.92648,0 -5.29628,-0.39762 -7.10942,-1.19286 -1.78133,-0.79523 -3.06961,-2.09942 -3.86485,-3.91256 -0.79524,-1.81314 -1.19285,-4.21476 -1.19285,-7.20485 0,-3.05371 0.39761,-5.48713 1.19285,-7.30027 0.79524,-1.81314 2.08352,-3.11733 3.86485,-3.91256 1.81314,-0.82705 4.18294,-1.24057 7.10942,-1.24057 z m 0,5.15313 c -1.20876,0 -2.16305,0.20676 -2.86285,0.62029 -0.69982,0.41352 -1.19286,1.14514 -1.47914,2.19485 -0.28629,1.04971 -0.42943,2.54476 -0.42943,4.48513 0,1.90857 0.14314,3.38772 0.42943,4.43743 0.28628,1.04971 0.77932,1.78132 1.47914,2.19485 0.6998,0.38171 1.65409,0.57257 2.86285,0.57257 1.20876,0 2.16304,-0.19086 2.86285,-0.57257 0.6998,-0.41353 1.19285,-1.14514 1.47914,-2.19485 0.28628,-1.04971 0.42943,-2.52886 0.42943,-4.43743 0,-1.94037 -0.14315,-3.43542 -0.42943,-4.48513 -0.28629,-1.04971 -0.77934,-1.78133 -1.47914,-2.19485 -0.69981,-0.41353 -1.65409,-0.62029 -2.86285,-0.62029 z"
             id="text23"
             aria-label="Condo"
             sodipodi:nodetypes="ccsccccsccsccsscccsccsccccsccscsscssscsssssscscsssssssccscsccccscccccccscccsssssccscccccscscssccccccccsccsccscsscssscsssssscscsssss" /></g></g></g></g></svg>
